# xmcd
#
# Track frame offsets: 
#        150
#        17144
#        29507
#        45577
#        58171
#        75079
#        88289
#        102392
#        123706
#        135376
#        146706
#
# Disc length: 2330 seconds
#
# Revision: 0
# Processed by: cddbd v1.5.2PL0 Copyright (c) Steve Scherf et al.
# Submitted via: ExactAudioCopy v0.99pb3
#
DISCID=9509180b
DTITLE=Blue Steel Express - Doin' The Crosstie Strut
DYEAR=2000
DGENRE=Blues
TTITLE0=Make Up Your Mind
TTITLE1=Let Me Go
TTITLE2=Shimmy 'n Shake
TTITLE3=Kitchen Song
TTITLE4=Young Girl
TTITLE5=Fishin' Pole
TTITLE6=Trust Her Heart
TTITLE7=Can't Get Rid Of Me
TTITLE8=Dexter's Rag
TTITLE9=Doin' The Crosstie Strut
TTITLE10=Man Is Gone Blues
EXTD=
EXTT0=
EXTT1=
EXTT2=
EXTT3=
EXTT4=
EXTT5=
EXTT6=
EXTT7=
EXTT8=
EXTT9=
EXTT10=
PLAYORDER=
